
<?xml version="1.0" encoding="UTF-8" standalone="no"?>
<!-- Created with Inkscape (http://www.inkscape.org/) -->

<svg
   xmlns:dc="http://purl.org/dc/elements/1.1/"
   xmlns:cc="http://creativecommons.org/ns#"
   xmlns:rdf="http://www.w3.org/1999/02/22-rdf-syntax-ns#"
   xmlns:svg="http://www.w3.org/2000/svg"
   xmlns="http://www.w3.org/2000/svg"
   xmlns:sodipodi="http://sodipodi.sourceforge.net/DTD/sodipodi-0.dtd"
   xmlns:inkscape="http://www.inkscape.org/namespaces/inkscape"
   width="348.61478mm"
   height="60.772511mm"
   viewBox="0 0 348.61477 60.772511"
   version="1.1"
   id="svg8"
   inkscape:version="0.92.2 (5c3e80d, 2017-08-06)"
   sodipodi:docname="kspace3.svg">
  <defs
     id="defs2" />
  <sodipodi:namedview
     id="base"
     pagecolor="#ffffff"
     bordercolor="#666666"
     borderopacity="1.0"
     inkscape:pageopacity="0.0"
     inkscape:pageshadow="2"
     inkscape:zoom="0.98994949"
     inkscape:cx="687.68274"
     inkscape:cy="-105.41076"
     inkscape:document-units="mm"
     inkscape:current-layer="layer1"
     showgrid="false"
     showguides="true"
     inkscape:guide-bbox="true"
     inkscape:window-width="1920"
     inkscape:window-height="1163"
     inkscape:window-x="1200"
     inkscape:window-y="360"
     inkscape:window-maximized="1"
     fit-margin-top="0"
     fit-margin-left="0"
     fit-margin-right="0"
     fit-margin-bottom="0">
    <sodipodi:guide
       position="55.053196,-30.918719"
       orientation="0,1"
       id="guide844"
       inkscape:locked="false" />
  </sodipodi:namedview>
  <metadata
     id="metadata5">
    <rdf:RDF>
      <cc:Work
         rdf:about="">
        <dc:format>image/svg+xml</dc:format>
        <dc:type
           rdf:resource="http://purl.org/dc/dcmitype/StillImage" />
        <dc:title></dc:title>
      </cc:Work>
    </rdf:RDF>
  </metadata>
  <g
     inkscape:label="Layer 1"
     inkscape:groupmode="layer"
     id="layer1"
     transform="translate(-53.898433,-112.51562)">
    <path
       inkscape:connector-curvature="0"
       id="path964"
       d="m 105.9238,158.10683 c -0.0399,-8.18554 -0.0329,-15.5469 0.0155,-16.35857 l 0.088,-1.47576 3.61618,-2.08036 c 8.81724,-5.07249 11.98103,-6.90082 14.3318,-8.28223 1.38244,-0.81238 3.70416,-2.14739 5.15937,-2.96668 1.45521,-0.81929 5.02708,-2.86156 7.9375,-4.53835 2.91042,-1.67681 7.2562,-4.18021 9.65729,-5.56312 2.4011,-1.38291 4.81302,-2.78173 5.35983,-3.10849 l 0.9942,-0.5941 -0.0682,16.48463 -0.0682,16.48463 -1.45521,0.83652 c -7.45526,4.28561 -10.80496,6.21666 -12.83229,7.39756 -1.30969,0.76288 -4.40531,2.54873 -6.87917,3.96854 -5.17307,2.96897 -14.66136,8.42062 -21.10602,12.12681 -2.44051,1.40348 -4.49146,2.55179 -4.55768,2.55179 -0.0662,0 -0.15303,-6.69727 -0.19292,-14.88282 z m 0.98588,4.56379 c 0.0924,-0.2912 0.3981,-0.65258 0.67929,-0.80306 0.28119,-0.15049 0.52534,-0.53731 0.54255,-0.85962 0.0244,-0.45597 0.0684,-0.41472 0.19844,0.18592 0.19778,0.91344 0.82859,1.24899 0.82859,0.44075 0,-0.8105 0.47578,-0.67161 0.60425,0.17639 0.10651,0.70314 0.11155,0.69978 0.14986,-0.0999 0.0383,-0.80018 0.59115,-1.57551 0.90184,-1.26482 0.0836,0.0836 0.4182,-0.11412 0.74351,-0.43943 0.56889,-0.56888 0.6051,-0.57285 0.94809,-0.10377 0.31119,0.42557 0.35662,0.43202 0.35662,0.0506 0,-0.4852 1.03218,-1.56347 1.32401,-1.38312 0.10204,0.0631 0.37157,-0.0303 0.59895,-0.20759 0.49779,-0.38802 0.70378,-2.95146 0.71511,-8.89916 0.004,-2.24345 0.0696,-4.01714 0.14521,-3.94155 0.0756,0.0756 0.20985,2.80411 0.29835,6.06337 0.0885,3.25926 0.21497,5.98527 0.28106,6.0578 0.0661,0.0725 0.2744,-0.0791 0.46293,-0.33689 0.32091,-0.43888 0.35584,-0.43042 0.54766,0.1327 0.18762,0.55079 0.21407,0.52901 0.31382,-0.25842 0.0659,-0.52056 0.25893,-0.85989 0.48904,-0.85989 0.20906,0 0.38011,-0.10616 0.38011,-0.2359 0,-0.12975 0.28246,-0.3068 0.6277,-0.39345 0.43571,-0.10935 0.68907,-0.4216 0.82836,-1.02087 0.15801,-0.67985 0.22687,-0.75086 0.32402,-0.33416 0.19468,0.83506 0.53244,1.03024 0.72622,0.41967 0.0977,-0.3078 0.27852,-0.49729 0.40183,-0.42108 0.12331,0.0762 0.41274,-0.05 0.64317,-0.2804 0.32893,-0.32893 0.44121,-0.34366 0.52246,-0.0686 0.0569,0.19271 0.22302,0.76711 0.3691,1.27643 l 0.26561,0.92604 0.0306,-0.92604 c 0.0405,-1.22309 0.29141,-2.11666 0.59448,-2.11666 0.13464,0 0.50111,-0.2388 0.81438,-0.53066 0.31328,-0.29186 0.76622,-0.46825 1.00653,-0.39198 0.26693,0.0847 0.62431,-0.11081 0.91847,-0.50252 0.26484,-0.35266 0.64036,-0.58025 0.83449,-0.50576 0.19413,0.0745 0.35296,-0.003 0.35296,-0.17306 0,-0.16968 0.11907,-0.23492 0.26459,-0.14498 0.14552,0.0899 0.26458,-0.0221 0.26458,-0.24897 0,-0.22687 0.17859,-0.41249 0.39687,-0.41249 0.21829,0 0.39688,-0.11533 0.39688,-0.25628 0,-0.14095 0.18431,-0.18555 0.40959,-0.0991 0.23642,0.0907 0.56844,-0.0526 0.78533,-0.33903 0.30598,-0.40407 0.38378,-2.21582 0.419,-9.75663 0.0238,-5.09323 0.11686,-8.8437 0.20685,-8.33437 0.09,0.50932 0.20541,4.49791 0.2565,8.86354 0.0511,4.36562 0.15382,8.03717 0.2283,8.15899 0.0745,0.12182 0.26484,0.0921 0.42303,-0.0661 0.20711,-0.20711 0.37158,-0.084 0.58753,0.43997 l 0.2999,0.72759 0.18835,-0.99219 c 0.13522,-0.71233 0.32362,-0.99219 0.66793,-0.99219 0.34542,0 0.55524,-0.31459 0.74999,-1.12448 0.19311,-0.80306 0.28064,-0.93541 0.30623,-0.46302 0.0197,0.36381 0.14728,0.83772 0.2835,1.05315 0.19659,0.3109 0.33004,0.20175 0.64705,-0.52917 0.21965,-0.50647 0.40403,-0.82881 0.40973,-0.71632 0.006,0.1125 0.30801,0.01 0.67181,-0.22886 0.36381,-0.23837 0.66146,-0.33637 0.66146,-0.21777 0,0.1186 0.14288,0.0728 0.3175,-0.10186 0.17463,-0.17463 0.53182,-0.3175 0.79375,-0.3175 0.26194,0 0.47808,-0.14883 0.4803,-0.33073 0.003,-0.22048 0.0896,-0.19844 0.26054,0.0661 0.21143,0.32717 0.25719,0.30161 0.26053,-0.14552 0.005,-0.66292 0.48088,-1.18087 0.92756,-1.00947 0.18142,0.0696 0.3939,-0.11827 0.47216,-0.41754 0.19128,-0.73149 0.71998,-0.69417 0.72505,0.0512 0.002,0.32742 0.11946,0.7739 0.26053,0.99218 0.18884,0.29221 0.25755,0.11324 0.26053,-0.6786 0.004,-0.967 0.0975,-1.12001 0.93009,-1.51707 0.50933,-0.24288 0.92605,-0.57717 0.92605,-0.74286 0,-0.20379 0.13767,-0.187 0.4255,0.0519 0.36099,0.29959 0.47951,0.27929 0.78164,-0.1339 0.27085,-0.3704 0.36482,-1.92041 0.39241,-6.47231 0.0199,-3.29189 0.1258,-7.23542 0.23521,-8.76339 0.17324,-2.41947 0.20446,-2.00957 0.24178,3.175 0.0566,7.85534 0.27389,11.1125 0.74149,11.1125 0.19633,0 0.35697,-0.16744 0.35697,-0.3721 0,-0.24184 0.18524,-0.32366 0.52916,-0.23373 0.33985,0.0889 0.52917,0.008 0.52917,-0.2257 0,-0.48744 1.05447,-1.17128 1.06714,-0.69206 0.005,0.18313 0.25638,0.0353 0.55899,-0.32849 0.3026,-0.3638 0.77489,-0.67634 1.04953,-0.69453 0.27464,-0.0182 0.58864,-0.0621 0.69778,-0.0975 0.10914,-0.0354 0.30659,-0.044 0.43877,-0.0191 0.13219,0.0249 0.33647,-0.10982 0.45397,-0.2994 0.22374,-0.361 0.33197,-22.96657 0.10996,-22.96657 -0.0702,0 -1.94673,1.05528 -4.1701,2.34507 -2.22337,1.28979 -6.0368,3.49245 -8.47427,4.89479 -2.43747,1.40235 -6.36654,3.66332 -8.73125,5.02438 -2.36471,1.36107 -6.35783,3.65302 -8.87358,5.09323 -2.51576,1.44022 -5.78998,3.33506 -7.27604,4.21077 -1.48607,0.87571 -3.98186,2.30207 -5.54621,3.16968 l -2.84427,1.57749 -0.003,2.12198 c -0.002,1.16709 -0.0317,6.25941 -0.0662,11.31626 -0.0345,5.05685 0.0186,9.19427 0.11795,9.19427 0.0993,0 0.25623,-0.23826 0.34865,-0.52945 z m -8.825827,8.68129 c -1.81901,-1.06278 -5.74808,-3.34208 -8.73125,-5.06511 -2.98318,-1.72302 -6.79318,-3.92796 -8.46667,-4.89986 -8.52209,-4.94928 -11.62605,-6.74831 -15.74271,-9.12432 -2.47385,-1.42784 -6.01596,-3.48323 -7.87135,-4.56754 l -3.37344,-1.97146 v -16.65849 c 0,-9.16218 0.0893,-16.60929 0.19844,-16.54915 0.10914,0.0601 2.93687,1.6888 6.28385,3.61922 5.5813,3.21911 7.95436,4.59459 17.59479,10.19834 3.08258,1.79182 7.03093,4.07833 17.6439,10.21766 2.35535,1.36251 4.647297,2.68011 5.093227,2.928 l 0.81079,0.45072 v 16.68105 c 0,9.17458 -0.0298,16.6793 -0.0661,16.67716 -0.0364,-0.002 -1.554427,-0.87344 -3.373437,-1.93622 z m 2.879147,-7.91561 -0.0313,-8.7974 -0.47912,4.54783 c -0.559707,5.31279 -0.813527,6.75181 -1.214477,6.88547 -0.43333,0.14444 -0.782,-1.56818 -1.54661,-7.59684 -0.37836,-2.98318 -0.79537,-5.72161 -0.9267,-6.08542 -0.13134,-0.3638 -0.28626,-0.89958 -0.34428,-1.19062 -0.19327,-0.96948 -0.68284,0.74541 -1.53553,5.37864 -0.91925,4.99486 -1.12063,5.57617 -1.54506,4.45986 -0.15575,-0.40965 -0.28319,-0.98222 -0.28319,-1.27238 0,-0.29016 -0.10119,-0.46502 -0.22486,-0.38859 -0.12368,0.0764 -0.30501,1.18158 -0.40295,2.45586 -0.1767,2.29874 -0.50235,3.24129 -0.79178,2.29168 -0.15046,-0.49367 -1.15219,-9.03477 -1.37625,-11.73445 -0.14699,-1.77097 -0.80363,-7.77455 -1.18649,-10.84791 -0.15409,-1.23693 -0.34293,-2.7711 -0.41965,-3.40926 -0.0767,-0.63817 -0.23649,-1.41208 -0.35505,-1.7198 -0.20382,-0.52902 -0.233,-0.51627 -0.53587,0.23427 -0.56411,1.39784 -1.89097,7.05442 -1.74437,7.43646 0.0778,0.20281 0.0457,0.36874 -0.0714,0.36874 -0.1171,0 -0.41152,0.71438 -0.65427,1.5875 -0.71091,2.55701 -0.98712,2.15083 -1.93008,-2.83822 -0.25378,-1.34275 -0.52816,-2.37549 -0.60972,-2.29499 -0.32069,0.31651 -0.948,7.53494 -0.68031,7.82824 0.18376,0.20135 0.17303,0.24021 -0.0343,0.12423 -0.18974,-0.10614 -0.36604,0.17405 -0.47501,0.75493 -0.29135,1.55306 -1.01518,1.06604 -1.5764,-1.06064 -0.19228,-0.72865 -0.34708,-1.66551 -0.56996,-3.4494 -0.25468,-2.03839 -0.48917,-1.47427 -1.04889,2.52335 -0.85635,6.11619 -1.25316,5.95458 -1.98936,-0.81022 -0.292,-2.68307 -0.76734,-7.01096 -1.05633,-9.61753 -0.28899,-2.60657 -0.4812,-4.78345 -0.42714,-4.83751 0.15887,-0.15887 0.36831,1.46906 1.21507,9.44443 0.44033,4.14734 0.88008,8.01688 0.97722,8.59896 l 0.17663,1.05833 0.21118,-0.79375 c 0.11615,-0.43656 0.44381,-2.32089 0.72813,-4.1874 0.72623,-4.76761 0.87386,-4.80934 1.62043,-0.45801 0.58288,3.39728 0.73997,3.98395 1.06678,3.98395 0.12912,0 0.29713,-0.38695 0.37336,-0.85989 0.23522,-1.45933 0.64518,-4.74298 0.81758,-6.54844 0.39407,-4.12699 0.8344,-3.52899 1.99693,2.71198 0.15586,0.83674 0.39401,1.52135 0.52921,1.52135 0.13521,0 0.24583,-0.0571 0.24583,-0.12686 0,-0.0698 0.47349,-2.14406 1.05221,-4.60954 1.07699,-4.58826 1.73967,-6.64068 2.14412,-6.64068 0.33711,0 0.99328,2.52575 1.16852,4.49792 0.084,0.94588 0.32038,3.08901 0.52518,4.7625 0.3641,2.97511 0.85619,7.5443 1.09704,10.18646 0.23935,2.62548 0.91154,8.17742 1.00089,8.26678 0.0503,0.0503 0.17771,-0.82982 0.28322,-1.95575 0.10551,-1.12592 0.28633,-2.29213 0.40183,-2.59158 0.1975,-0.51206 0.22736,-0.50014 0.50182,0.20037 0.16051,0.40966 0.29183,0.96818 0.29183,1.24116 0,0.27298 0.0997,0.55794 0.22153,0.63324 0.12184,0.0753 0.54047,-1.62891 0.93029,-3.78712 1.22231,-6.76727 1.91892,-8.18496 2.51382,-5.11596 0.31472,1.62355 0.72119,4.40403 0.98222,6.71888 0.0879,0.77938 0.32823,2.57714 0.53409,3.99501 0.20587,1.41787 0.3743,2.63826 0.3743,2.71197 0,0.0737 0.10677,0.13404 0.23726,0.13404 0.26852,0 0.66776,-2.80668 1.091437,-7.67292 0.15838,-1.81901 0.3484,-3.78354 0.42227,-4.36562 0.0739,-0.58209 0.19593,-3.73724 0.27126,-7.01146 l 0.13696,-5.95313 -2.071777,-1.16729 c -1.13948,-0.64201 -2.118,-1.13785 -2.17449,-1.10188 -0.0565,0.036 -0.17555,-0.0462 -0.26459,-0.18253 -0.089,-0.13636 -1.82874,-1.20656 -3.86603,-2.3782 -4.89593,-2.81564 -8.9535,-5.16276 -15.21354,-8.80035 -5.65552,-3.28633 -8.81141,-5.10957 -16.00726,-9.24782 -2.61937,-1.50637 -5.20661,-3.01747 -5.74942,-3.358 -0.54282,-0.34052 -1.0468,-0.61914 -1.11996,-0.61914 -0.0732,0 -0.13209,5.35782 -0.13094,11.90625 10e-4,6.54844 0.0884,11.90581 0.19392,11.90526 0.53557,-0.003 1.9381,-1.13484 2.31937,-1.87213 0.23839,-0.461 0.72564,-2.21773 1.08276,-3.90384 0.35713,-1.68611 0.694,-3.11033 0.74859,-3.16492 0.39367,-0.39367 1.69032,6.04387 1.39015,6.90175 -0.0617,0.17619 -0.1976,-0.3345 -0.30211,-1.13487 -0.43464,-3.32863 -0.75445,-4.83043 -0.95202,-4.47056 -0.11157,0.20324 -0.40181,1.38155 -0.64496,2.61848 -0.24315,1.23693 -0.50429,2.46514 -0.58031,2.72937 -0.21873,0.76022 -1.60301,2.20203 -2.4517,2.55357 l -0.77511,0.32106 -0.0234,3.74644 -0.0234,3.74644 4.03841,2.31508 c 2.22113,1.2733 6.00295,3.45823 8.40404,4.85541 2.40109,1.39717 5.85391,3.40094 7.67292,4.45281 1.81901,1.05187 5.62901,3.26242 8.46666,4.91232 4.62492,2.68906 10.20304,5.91603 15.8686,9.18004 1.08788,0.62675 2.010607,1.13954 2.050517,1.13954 0.0399,0 0.0585,-3.95882 0.0413,-8.79739 z M 69.672113,147.44357 c -0.20581,-0.67219 -0.62002,-4.54918 -0.98384,-9.20883 -0.17043,-2.18282 -0.39229,-4.19527 -0.49302,-4.47213 -0.16599,-0.45622 -0.72211,2.39831 -1.20632,6.19192 -0.24346,1.90736 -0.92199,5.7836 -1.08827,6.21692 -0.30655,0.79886 -0.80192,0.24364 -1.06159,-1.18984 -0.10915,-0.60258 -0.82709,-7.16624 -1.14314,-10.45104 -0.47892,-4.97745 -0.86012,-7.81011 -1.06835,-7.9388 -0.11006,-0.068 -0.33923,1.27367 -0.50927,2.98152 -0.17004,1.70786 -0.42186,4.11723 -0.55961,5.35415 -0.13775,1.23693 -0.25078,2.33826 -0.25119,2.4474 -4e-4,0.10914 -0.16988,0.19844 -0.3766,0.19844 -0.38164,0 -0.86389,-1.49429 -0.57537,-1.78281 0.0866,-0.0866 0.15747,0.0935 0.15747,0.40018 0,0.3067 0.10573,0.62299 0.23495,0.70285 0.2816,0.17404 0.47081,-1.04195 0.82054,-5.27335 0.43264,-5.23452 0.7312,-6.53491 1.26945,-5.52919 0.26267,0.49081 0.89968,5.26795 1.24887,9.36565 0.25289,2.96769 0.90636,8.75889 1.08519,9.6173 0.2586,1.24125 0.6033,0.45414 1.02169,-2.33301 0.31115,-2.07275 0.32522,-2.69776 0.0679,-3.01586 -0.25327,-0.31308 -0.25364,-0.35865 -0.002,-0.20736 0.36673,0.22018 0.38812,0.1413 0.99185,-3.65821 0.77732,-4.89198 1.24601,-3.9794 1.84282,3.58812 0.52456,6.65149 0.69309,8.00853 0.9604,7.73346 0.25191,-0.25922 0.99458,-3.15163 2.0933,-8.15256 1.12424,-5.11708 1.86149,-7.54063 2.29387,-7.54063 0.45258,0 0.45486,0.20585 0.007,0.65347 -0.1931,0.1931 -0.79988,2.23842 -1.3484,4.54516 -2.19768,9.24209 -2.67882,11.04362 -2.97441,11.13713 -0.16955,0.0536 -0.37408,-0.11738 -0.45451,-0.38005 z"
       style="fill:#000000;fill-opacity:1;stroke-width:0.26458332"
       sodipodi:nodetypes="cscsssccccccssccsccccccsccsccsccccsccscssccccccccccsccccscsssccccccccccsccccccscscccccccccscccccsscscccsccsscccccccssccccccccscccsccscccccscccsccsccccsccccsccccscccscsssccccsssccsscsccccsccscccccssccscsccscscsccccscscscccccccsccscccsccscccsscssscscccsccsccsscsccc" />
    <text
       xml:space="preserve"
       style="font-style:normal;font-variant:normal;font-weight:normal;font-stretch:normal;font-size:40.56944275px;line-height:1.25;font-family:orbitron;-inkscape-font-specification:orbitron;letter-spacing:0px;word-spacing:0px;fill:#000000;fill-opacity:1;stroke:none;stroke-width:0.26458332"
       x="155.09993"
       y="144.9799"
       id="text1022"><tspan
         sodipodi:role="line"
         id="tspan1020"
         x="155.09993"
         y="144.9799"
         style="font-style:normal;font-variant:normal;font-weight:normal;font-stretch:normal;font-size:40.56944275px;font-family:orbitron;-inkscape-font-specification:orbitron;stroke-width:0.26458332">k-space.ee</tspan></text>
    <text
       xml:space="preserve"
       style="font-style:normal;font-variant:normal;font-weight:normal;font-stretch:normal;font-size:14.11111069px;line-height:1.25;font-family:orbitron;-inkscape-font-specification:orbitron;letter-spacing:0px;word-spacing:0px;fill:#000000;fill-opacity:1;stroke:none;stroke-width:0.26458332"
       x="155.68474"
       y="164.94167"
       id="text1045"><tspan
         sodipodi:role="line"
         id="tspan1043"
         x="155.68474"
         y="164.94167"
         style="font-style:normal;font-variant:normal;font-weight:normal;font-stretch:normal;font-size:15.875px;font-family:orbitron;-inkscape-font-specification:orbitron;stroke-width:0.26458332">hackerspace ^ makerspace</tspan></text>
  </g>
</svg>

